<?xml version="1.0" encoding="utf-8"?>
<!-- Generator: Adobe Illustrator 22.1.0, SVG Export Plug-In . SVG Version: 6.00 Build 0)  -->
<svg version="1.1" id="Capa_1" xmlns="http://www.w3.org/2000/svg" xmlns:xlink="http://www.w3.org/1999/xlink" x="0px" y="0px"
	 viewBox="0 0 24 24" style="enable-background:new 0 0 24 24;" xml:space="preserve">
<style type="text/css">
	.st0{fill:none;}
</style>
<path class="st0" d="M0,0h24v24H0V0z"/>
<path d="M7,18c0,1.1,0.9,2,2,2h6c1.1,0,2-0.9,2-2V8H7V18z M17,5h-2l-0.7-0.7C14.1,4.1,13.9,4,13.6,4h-3.2c-0.3,0-0.5,0.1-0.7,0.3
	L9,5H7C6.4,5,6,5.4,6,6s0.4,1,1,1h10c0.5,0,1-0.4,1-1S17.5,5,17,5z"/>
</svg>
